solid zone0
 facet normal 0 -1 -2.22045e-16
  outer loop
   vertex 0 6.2864e-10 -0.0585938
   vertex -0.0224229 6.2864e-10 -0.0541335
   vertex -0.011431 6.2864e-10 -0.0574679
  endloop
 endfacet
 facet normal 0 -1 -2.22045e-16
  outer loop
   vertex -0.0224229 6.2864e-10 -0.0541335
   vertex -0.041432 6.2864e-10 -0.041432
   vertex -0.032553 6.2864e-10 -0.048719
  endloop
 endfacet
 facet normal 0 -1 -2.22045e-16
  outer loop
   vertex -0.041432 6.2864e-10 -0.041432
   vertex -0.0541335 6.2864e-10 -0.0224229
   vertex -0.048719 6.2864e-10 -0.032553
  endloop
 endfacet
 facet normal 0 -1 -2.22045e-16
  outer loop
   vertex -0.0541335 6.2864e-10 -0.0224229
   vertex -0.0585938 6.2864e-10 1.39586e-25
   vertex -0.0574679 6.2864e-10 -0.011431
  endloop
 endfacet
 facet normal 0 -1 -2.22045e-16
  outer loop
   vertex -0.0585938 6.2864e-10 1.39586e-25
   vertex -0.0541335 6.2864e-10 0.0224229
   vertex -0.0574679 6.2864e-10 0.011431
  endloop
 endfacet
 facet normal 0 -1 -2.22045e-16
  outer loop
   vertex -0.0541335 6.2864e-10 0.0224229
   vertex -0.041432 6.2864e-10 0.041432
   vertex -0.048719 6.2864e-10 0.032553
  endloop
 endfacet
 facet normal 0 -1 -2.22045e-16
  outer loop
   vertex -0.041432 6.2864e-10 0.041432
   vertex -0.0224229 6.2864e-10 0.0541335
   vertex -0.032553 6.2864e-10 0.048719
  endloop
 endfacet
 facet normal 0 -1 -2.22045e-16
  outer loop
   vertex -0.0224229 6.2864e-10 0.0541335
   vertex 0 6.2864e-10 0.0585938
   vertex -0.011431 6.2864e-10 0.0574679
  endloop
 endfacet
 facet normal 0 -1 -2.22045e-16
  outer loop
   vertex 0 6.2864e-10 0.0585938
   vertex 0.0224229 6.2864e-10 0.0541335
   vertex 0.011431 6.2864e-10 0.0574679
  endloop
 endfacet
 facet normal 0 -1 -2.22045e-16
  outer loop
   vertex 0.0224229 6.2864e-10 0.0541335
   vertex 0.041432 6.2864e-10 0.041432
   vertex 0.032553 6.2864e-10 0.048719
  endloop
 endfacet
 facet normal 0 -1 -2.22045e-16
  outer loop
   vertex 0.041432 6.2864e-10 0.041432
   vertex 0.0541335 6.2864e-10 0.0224229
   vertex 0.048719 6.2864e-10 0.032553
  endloop
 endfacet
 facet normal 0 -1 -2.22045e-16
  outer loop
   vertex 0.0541335 6.2864e-10 0.0224229
   vertex 0.0585938 6.2864e-10 1.39586e-25
   vertex 0.0574679 6.2864e-10 0.011431
  endloop
 endfacet
 facet normal 0 -1 -2.22045e-16
  outer loop
   vertex 0.0585938 6.2864e-10 1.39586e-25
   vertex 0.0541335 6.2864e-10 -0.0224229
   vertex 0.0574679 6.2864e-10 -0.011431
  endloop
 endfacet
 facet normal 0 -1 -2.22045e-16
  outer loop
   vertex 0.0541335 6.2864e-10 -0.0224229
   vertex 0.041432 6.2864e-10 -0.041432
   vertex 0.048719 6.2864e-10 -0.032553
  endloop
 endfacet
 facet normal 0 -1 -2.22045e-16
  outer loop
   vertex 0.041432 6.2864e-10 -0.041432
   vertex 0.0224229 6.2864e-10 -0.0541335
   vertex 0.032553 6.2864e-10 -0.048719
  endloop
 endfacet
 facet normal 0 -1 -2.22045e-16
  outer loop
   vertex 0.0224229 6.2864e-10 -0.0541335
   vertex 0 6.2864e-10 -0.0585938
   vertex 0.011431 6.2864e-10 -0.0574679
  endloop
 endfacet
 facet normal 0 -1 -2.22045e-16
  outer loop
   vertex 0 6.2864e-10 -0.0585938
   vertex -0.041432 6.2864e-10 -0.041432
   vertex -0.0224229 6.2864e-10 -0.0541335
  endloop
 endfacet
 facet normal 0 -1 -2.22045e-16
  outer loop
   vertex -0.041432 6.2864e-10 -0.041432
   vertex -0.0585938 6.2864e-10 1.39586e-25
   vertex -0.0541335 6.2864e-10 -0.0224229
  endloop
 endfacet
 facet normal 0 -1 -2.22045e-16
  outer loop
   vertex -0.0585938 6.2864e-10 1.39586e-25
   vertex -0.041432 6.2864e-10 0.041432
   vertex -0.0541335 6.2864e-10 0.0224229
  endloop
 endfacet
 facet normal 0 -1 -2.22045e-16
  outer loop
   vertex -0.041432 6.2864e-10 0.041432
   vertex 0 6.2864e-10 0.0585938
   vertex -0.0224229 6.2864e-10 0.0541335
  endloop
 endfacet
 facet normal 0 -1 -2.22045e-16
  outer loop
   vertex 0 6.2864e-10 0.0585938
   vertex 0.041432 6.2864e-10 0.041432
   vertex 0.0224229 6.2864e-10 0.0541335
  endloop
 endfacet
 facet normal 0 -1 -2.22045e-16
  outer loop
   vertex 0.041432 6.2864e-10 0.041432
   vertex 0.0585938 6.2864e-10 1.39586e-25
   vertex 0.0541335 6.2864e-10 0.0224229
  endloop
 endfacet
 facet normal 0 -1 -2.22045e-16
  outer loop
   vertex 0.0585938 6.2864e-10 1.39586e-25
   vertex 0.041432 6.2864e-10 -0.041432
   vertex 0.0541335 6.2864e-10 -0.0224229
  endloop
 endfacet
 facet normal 0 -1 -2.22045e-16
  outer loop
   vertex 0.041432 6.2864e-10 -0.041432
   vertex 0 6.2864e-10 -0.0585938
   vertex 0.0224229 6.2864e-10 -0.0541335
  endloop
 endfacet
 facet normal 0 -1 -2.22045e-16
  outer loop
   vertex 0 6.2864e-10 -0.0585938
   vertex -0.0585938 6.2864e-10 1.39586e-25
   vertex -0.041432 6.2864e-10 -0.041432
  endloop
 endfacet
 facet normal 0 -1 -2.22045e-16
  outer loop
   vertex -0.0585938 6.2864e-10 1.39586e-25
   vertex 0 6.2864e-10 0.0585938
   vertex -0.041432 6.2864e-10 0.041432
  endloop
 endfacet
 facet normal 0 -1 -2.22045e-16
  outer loop
   vertex 0 6.2864e-10 0.0585938
   vertex 0.0585938 6.2864e-10 1.39586e-25
   vertex 0.041432 6.2864e-10 0.041432
  endloop
 endfacet
 facet normal 0 -1 -2.22045e-16
  outer loop
   vertex 0.0585938 6.2864e-10 1.39586e-25
   vertex 0 6.2864e-10 -0.0585938
   vertex 0.041432 6.2864e-10 -0.041432
  endloop
 endfacet
 facet normal 0 -1 -2.22045e-16
  outer loop
   vertex 0 6.2864e-10 -0.0585938
   vertex 0 6.2864e-10 0.0585938
   vertex -0.0585938 6.2864e-10 1.39586e-25
  endloop
 endfacet
 facet normal 0 -1 -2.22045e-16
  outer loop
   vertex 0 6.2864e-10 0.0585938
   vertex 0 6.2864e-10 -0.0585938
   vertex 0.0585938 6.2864e-10 1.39586e-25
  endloop
 endfacet
 facet normal 0.934682 -0.214421 0.283536
  outer loop
   vertex 0.0541335 6.2864e-10 0.0224229
   vertex 0.0574679 6.2864e-10 0.011431
   vertex 0.172404 0.53125 0.034293
  endloop
 endfacet
 facet normal 0.934676 -0.21442 0.283557
  outer loop
   vertex 0.0541335 6.2864e-10 0.0224229
   vertex 0.172404 0.53125 0.034293
   vertex 0.1624 0.53125 0.0672687
  endloop
 endfacet
 facet normal -0.755023 -0.21442 -0.619648
  outer loop
   vertex -0.041432 6.2864e-10 -0.041432
   vertex -0.048719 6.2864e-10 -0.032553
   vertex -0.146157 0.53125 -0.097659
  endloop
 endfacet
 facet normal -0.755023 -0.21442 -0.619648
  outer loop
   vertex -0.041432 6.2864e-10 -0.041432
   vertex -0.146157 0.53125 -0.097659
   vertex -0.124296 0.53125 -0.124296
  endloop
 endfacet
 facet normal -0.934683 -0.214419 0.283536
  outer loop
   vertex -0.0574679 6.2864e-10 0.011431
   vertex -0.0541335 6.2864e-10 0.0224229
   vertex -0.1624 0.53125 0.0672687
  endloop
 endfacet
 facet normal -0.934676 -0.21442 0.283557
  outer loop
   vertex -0.0574679 6.2864e-10 0.011431
   vertex -0.1624 0.53125 0.0672687
   vertex -0.172404 0.53125 0.034293
  endloop
 endfacet
 facet normal 0.283536 -0.214421 -0.934682
  outer loop
   vertex 0.0224229 6.2864e-10 -0.0541335
   vertex 0.011431 6.2864e-10 -0.0574679
   vertex 0.034293 0.53125 -0.172404
  endloop
 endfacet
 facet normal 0.283557 -0.21442 -0.934676
  outer loop
   vertex 0.0224229 6.2864e-10 -0.0541335
   vertex 0.034293 0.53125 -0.172404
   vertex 0.0672687 0.53125 -0.1624
  endloop
 endfacet
 facet normal 0.095741 -0.214421 0.972038
  outer loop
   vertex 0 6.2864e-10 0.0585938
   vertex 0.011431 6.2864e-10 0.0574679
   vertex 0.034293 0.53125 0.172404
  endloop
 endfacet
 facet normal 0.0957213 -0.21442 0.97204
  outer loop
   vertex 0 6.2864e-10 0.0585938
   vertex 0.034293 0.53125 0.172404
   vertex -2.32831e-10 0.53125 0.175781
  endloop
 endfacet
 facet normal -0.460423 -0.21442 -0.861414
  outer loop
   vertex -0.0224229 6.2864e-10 -0.0541335
   vertex -0.032553 6.2864e-10 -0.048719
   vertex -0.097659 0.53125 -0.146157
  endloop
 endfacet
 facet normal -0.460412 -0.21442 -0.86142
  outer loop
   vertex -0.0224229 6.2864e-10 -0.0541335
   vertex -0.097659 0.53125 -0.146157
   vertex -0.0672687 0.53125 -0.1624
  endloop
 endfacet
 facet normal 0.934683 -0.214419 -0.283536
  outer loop
   vertex 0.0574679 6.2864e-10 -0.011431
   vertex 0.0541335 6.2864e-10 -0.0224229
   vertex 0.1624 0.53125 -0.0672687
  endloop
 endfacet
 facet normal 0.934676 -0.21442 -0.283557
  outer loop
   vertex 0.0574679 6.2864e-10 -0.011431
   vertex 0.1624 0.53125 -0.0672687
   vertex 0.172404 0.53125 -0.034293
  endloop
 endfacet
 facet normal 0.619648 -0.21442 -0.755023
  outer loop
   vertex 0.041432 6.2864e-10 -0.041432
   vertex 0.032553 6.2864e-10 -0.048719
   vertex 0.097659 0.53125 -0.146157
  endloop
 endfacet
 facet normal 0.619648 -0.21442 -0.755023
  outer loop
   vertex 0.041432 6.2864e-10 -0.041432
   vertex 0.097659 0.53125 -0.146157
   vertex 0.124296 0.53125 -0.124296
  endloop
 endfacet
 facet normal -0.095741 -0.21442 0.972038
  outer loop
   vertex -0.011431 6.2864e-10 0.0574679
   vertex 0 6.2864e-10 0.0585938
   vertex -2.32831e-10 0.53125 0.175781
  endloop
 endfacet
 facet normal -0.0957213 -0.21442 0.97204
  outer loop
   vertex -0.011431 6.2864e-10 0.0574679
   vertex -2.32831e-10 0.53125 0.175781
   vertex -0.034293 0.53125 0.172404
  endloop
 endfacet
 facet normal -0.283536 -0.214421 0.934682
  outer loop
   vertex -0.0224229 6.2864e-10 0.0541335
   vertex -0.011431 6.2864e-10 0.0574679
   vertex -0.034293 0.53125 0.172404
  endloop
 endfacet
 facet normal -0.283557 -0.21442 0.934676
  outer loop
   vertex -0.0224229 6.2864e-10 0.0541335
   vertex -0.034293 0.53125 0.172404
   vertex -0.0672687 0.53125 0.1624
  endloop
 endfacet
 facet normal -0.095741 -0.214421 -0.972038
  outer loop
   vertex 0 6.2864e-10 -0.0585938
   vertex -0.011431 6.2864e-10 -0.0574679
   vertex -0.034293 0.53125 -0.172404
  endloop
 endfacet
 facet normal -0.0957213 -0.21442 -0.97204
  outer loop
   vertex 0 6.2864e-10 -0.0585938
   vertex -0.034293 0.53125 -0.172404
   vertex -2.32831e-10 0.53125 -0.175781
  endloop
 endfacet
 facet normal -0.861415 -0.21442 -0.460423
  outer loop
   vertex -0.048719 6.2864e-10 -0.032553
   vertex -0.0541335 6.2864e-10 -0.0224229
   vertex -0.1624 0.53125 -0.0672687
  endloop
 endfacet
 facet normal -0.86142 -0.21442 -0.460412
  outer loop
   vertex -0.048719 6.2864e-10 -0.032553
   vertex -0.1624 0.53125 -0.0672687
   vertex -0.146157 0.53125 -0.097659
  endloop
 endfacet
 facet normal 0.460423 -0.21442 0.861414
  outer loop
   vertex 0.0224229 6.2864e-10 0.0541335
   vertex 0.032553 6.2864e-10 0.048719
   vertex 0.097659 0.53125 0.146157
  endloop
 endfacet
 facet normal 0.460412 -0.21442 0.86142
  outer loop
   vertex 0.0224229 6.2864e-10 0.0541335
   vertex 0.097659 0.53125 0.146157
   vertex 0.0672687 0.53125 0.1624
  endloop
 endfacet
 facet normal 0.861414 -0.21442 -0.460423
  outer loop
   vertex 0.0541335 6.2864e-10 -0.0224229
   vertex 0.048719 6.2864e-10 -0.032553
   vertex 0.146157 0.53125 -0.097659
  endloop
 endfacet
 facet normal 0.86142 -0.21442 -0.460412
  outer loop
   vertex 0.0541335 6.2864e-10 -0.0224229
   vertex 0.146157 0.53125 -0.097659
   vertex 0.1624 0.53125 -0.0672687
  endloop
 endfacet
 facet normal -0.619648 -0.21442 0.755023
  outer loop
   vertex -0.041432 6.2864e-10 0.041432
   vertex -0.032553 6.2864e-10 0.048719
   vertex -0.097659 0.53125 0.146157
  endloop
 endfacet
 facet normal -0.619648 -0.21442 0.755023
  outer loop
   vertex -0.041432 6.2864e-10 0.041432
   vertex -0.097659 0.53125 0.146157
   vertex -0.124296 0.53125 0.124296
  endloop
 endfacet
 facet normal 0.095741 -0.21442 -0.972038
  outer loop
   vertex 0.011431 6.2864e-10 -0.0574679
   vertex 0 6.2864e-10 -0.0585938
   vertex -2.32831e-10 0.53125 -0.175781
  endloop
 endfacet
 facet normal 0.0957213 -0.21442 -0.97204
  outer loop
   vertex 0.011431 6.2864e-10 -0.0574679
   vertex -2.32831e-10 0.53125 -0.175781
   vertex 0.034293 0.53125 -0.172404
  endloop
 endfacet
 facet normal 0.972038 -0.214421 -0.095741
  outer loop
   vertex 0.0585938 6.2864e-10 1.39586e-25
   vertex 0.0574679 6.2864e-10 -0.011431
   vertex 0.172404 0.53125 -0.034293
  endloop
 endfacet
 facet normal 0.97204 -0.21442 -0.0957213
  outer loop
   vertex 0.0585938 6.2864e-10 1.39586e-25
   vertex 0.172404 0.53125 -0.034293
   vertex 0.175781 0.53125 -1.68802e-09
  endloop
 endfacet
 facet normal 0.755023 -0.21442 0.619648
  outer loop
   vertex 0.041432 6.2864e-10 0.041432
   vertex 0.048719 6.2864e-10 0.032553
   vertex 0.146157 0.53125 0.097659
  endloop
 endfacet
 facet normal 0.755023 -0.21442 0.619648
  outer loop
   vertex 0.041432 6.2864e-10 0.041432
   vertex 0.146157 0.53125 0.097659
   vertex 0.124296 0.53125 0.124296
  endloop
 endfacet
 facet normal -0.861414 -0.21442 0.460423
  outer loop
   vertex -0.0541335 6.2864e-10 0.0224229
   vertex -0.048719 6.2864e-10 0.032553
   vertex -0.146157 0.53125 0.097659
  endloop
 endfacet
 facet normal -0.86142 -0.21442 0.460412
  outer loop
   vertex -0.0541335 6.2864e-10 0.0224229
   vertex -0.146157 0.53125 0.097659
   vertex -0.1624 0.53125 0.0672687
  endloop
 endfacet
 facet normal 0.755023 -0.21442 -0.619648
  outer loop
   vertex 0.048719 6.2864e-10 -0.032553
   vertex 0.041432 6.2864e-10 -0.041432
   vertex 0.124296 0.53125 -0.124296
  endloop
 endfacet
 facet normal 0.755023 -0.21442 -0.619648
  outer loop
   vertex 0.048719 6.2864e-10 -0.032553
   vertex 0.124296 0.53125 -0.124296
   vertex 0.146157 0.53125 -0.097659
  endloop
 endfacet
 facet normal 0.972038 -0.21442 0.095741
  outer loop
   vertex 0.0574679 6.2864e-10 0.011431
   vertex 0.0585938 6.2864e-10 1.39586e-25
   vertex 0.175781 0.53125 -1.68802e-09
  endloop
 endfacet
 facet normal 0.97204 -0.21442 0.0957213
  outer loop
   vertex 0.0574679 6.2864e-10 0.011431
   vertex 0.175781 0.53125 -1.68802e-09
   vertex 0.172404 0.53125 0.034293
  endloop
 endfacet
 facet normal 0.283536 -0.214419 0.934683
  outer loop
   vertex 0.011431 6.2864e-10 0.0574679
   vertex 0.0224229 6.2864e-10 0.0541335
   vertex 0.0672687 0.53125 0.1624
  endloop
 endfacet
 facet normal 0.283557 -0.21442 0.934676
  outer loop
   vertex 0.011431 6.2864e-10 0.0574679
   vertex 0.0672687 0.53125 0.1624
   vertex 0.034293 0.53125 0.172404
  endloop
 endfacet
 facet normal 0.861415 -0.21442 0.460423
  outer loop
   vertex 0.048719 6.2864e-10 0.032553
   vertex 0.0541335 6.2864e-10 0.0224229
   vertex 0.1624 0.53125 0.0672687
  endloop
 endfacet
 facet normal 0.86142 -0.21442 0.460412
  outer loop
   vertex 0.048719 6.2864e-10 0.032553
   vertex 0.1624 0.53125 0.0672687
   vertex 0.146157 0.53125 0.097659
  endloop
 endfacet
 facet normal -0.460423 -0.21442 0.861415
  outer loop
   vertex -0.032553 6.2864e-10 0.048719
   vertex -0.0224229 6.2864e-10 0.0541335
   vertex -0.0672687 0.53125 0.1624
  endloop
 endfacet
 facet normal -0.460412 -0.21442 0.86142
  outer loop
   vertex -0.032553 6.2864e-10 0.048719
   vertex -0.0672687 0.53125 0.1624
   vertex -0.097659 0.53125 0.146157
  endloop
 endfacet
 facet normal -0.972038 -0.214421 0.095741
  outer loop
   vertex -0.0585938 6.2864e-10 1.39586e-25
   vertex -0.0574679 6.2864e-10 0.011431
   vertex -0.172404 0.53125 0.034293
  endloop
 endfacet
 facet normal -0.97204 -0.21442 0.0957213
  outer loop
   vertex -0.0585938 6.2864e-10 1.39586e-25
   vertex -0.172404 0.53125 0.034293
   vertex -0.175781 0.53125 -1.68802e-09
  endloop
 endfacet
 facet normal -0.619648 -0.21442 -0.755023
  outer loop
   vertex -0.032553 6.2864e-10 -0.048719
   vertex -0.041432 6.2864e-10 -0.041432
   vertex -0.124296 0.53125 -0.124296
  endloop
 endfacet
 facet normal -0.619648 -0.21442 -0.755023
  outer loop
   vertex -0.032553 6.2864e-10 -0.048719
   vertex -0.124296 0.53125 -0.124296
   vertex -0.097659 0.53125 -0.146157
  endloop
 endfacet
 facet normal -0.972038 -0.21442 -0.095741
  outer loop
   vertex -0.0574679 6.2864e-10 -0.011431
   vertex -0.0585938 6.2864e-10 1.39586e-25
   vertex -0.175781 0.53125 -1.68802e-09
  endloop
 endfacet
 facet normal -0.97204 -0.21442 -0.0957213
  outer loop
   vertex -0.0574679 6.2864e-10 -0.011431
   vertex -0.175781 0.53125 -1.68802e-09
   vertex -0.172404 0.53125 -0.034293
  endloop
 endfacet
 facet normal -0.755023 -0.21442 0.619648
  outer loop
   vertex -0.048719 6.2864e-10 0.032553
   vertex -0.041432 6.2864e-10 0.041432
   vertex -0.124296 0.53125 0.124296
  endloop
 endfacet
 facet normal -0.755023 -0.21442 0.619648
  outer loop
   vertex -0.048719 6.2864e-10 0.032553
   vertex -0.124296 0.53125 0.124296
   vertex -0.146157 0.53125 0.097659
  endloop
 endfacet
 facet normal 0.460423 -0.21442 -0.861415
  outer loop
   vertex 0.032553 6.2864e-10 -0.048719
   vertex 0.0224229 6.2864e-10 -0.0541335
   vertex 0.0672687 0.53125 -0.1624
  endloop
 endfacet
 facet normal 0.460412 -0.21442 -0.86142
  outer loop
   vertex 0.032553 6.2864e-10 -0.048719
   vertex 0.0672687 0.53125 -0.1624
   vertex 0.097659 0.53125 -0.146157
  endloop
 endfacet
 facet normal -0.934682 -0.214421 -0.283536
  outer loop
   vertex -0.0541335 6.2864e-10 -0.0224229
   vertex -0.0574679 6.2864e-10 -0.011431
   vertex -0.172404 0.53125 -0.034293
  endloop
 endfacet
 facet normal -0.934676 -0.21442 -0.283557
  outer loop
   vertex -0.0541335 6.2864e-10 -0.0224229
   vertex -0.172404 0.53125 -0.034293
   vertex -0.1624 0.53125 -0.0672687
  endloop
 endfacet
 facet normal 0 1 0
  outer loop
   vertex -2.32831e-10 0.53125 -0.175781
   vertex -0.034293 0.53125 -0.172404
   vertex -0.0672687 0.53125 -0.1624
  endloop
 endfacet
 facet normal 0 1 0
  outer loop
   vertex -0.0672687 0.53125 -0.1624
   vertex -0.097659 0.53125 -0.146157
   vertex -0.124296 0.53125 -0.124296
  endloop
 endfacet
 facet normal 0 1 0
  outer loop
   vertex -0.124296 0.53125 -0.124296
   vertex -0.146157 0.53125 -0.097659
   vertex -0.1624 0.53125 -0.0672687
  endloop
 endfacet
 facet normal 0 1 0
  outer loop
   vertex -0.1624 0.53125 -0.0672687
   vertex -0.172404 0.53125 -0.034293
   vertex -0.175781 0.53125 -1.68802e-09
  endloop
 endfacet
 facet normal 0 1 0
  outer loop
   vertex -0.175781 0.53125 -1.68802e-09
   vertex -0.172404 0.53125 0.034293
   vertex -0.1624 0.53125 0.0672687
  endloop
 endfacet
 facet normal 0 1 0
  outer loop
   vertex -0.1624 0.53125 0.0672687
   vertex -0.146157 0.53125 0.097659
   vertex -0.124296 0.53125 0.124296
  endloop
 endfacet
 facet normal 0 1 0
  outer loop
   vertex -0.124296 0.53125 0.124296
   vertex -0.097659 0.53125 0.146157
   vertex -0.0672687 0.53125 0.1624
  endloop
 endfacet
 facet normal 0 1 0
  outer loop
   vertex -0.0672687 0.53125 0.1624
   vertex -0.034293 0.53125 0.172404
   vertex -2.32831e-10 0.53125 0.175781
  endloop
 endfacet
 facet normal 0 1 0
  outer loop
   vertex -2.32831e-10 0.53125 0.175781
   vertex 0.034293 0.53125 0.172404
   vertex 0.0672687 0.53125 0.1624
  endloop
 endfacet
 facet normal 0 1 0
  outer loop
   vertex 0.0672687 0.53125 0.1624
   vertex 0.097659 0.53125 0.146157
   vertex 0.124296 0.53125 0.124296
  endloop
 endfacet
 facet normal 0 1 0
  outer loop
   vertex 0.124296 0.53125 0.124296
   vertex 0.146157 0.53125 0.097659
   vertex 0.1624 0.53125 0.0672687
  endloop
 endfacet
 facet normal 0 1 0
  outer loop
   vertex 0.1624 0.53125 0.0672687
   vertex 0.172404 0.53125 0.034293
   vertex 0.175781 0.53125 -1.68802e-09
  endloop
 endfacet
 facet normal 0 1 0
  outer loop
   vertex 0.175781 0.53125 -1.68802e-09
   vertex 0.172404 0.53125 -0.034293
   vertex 0.1624 0.53125 -0.0672687
  endloop
 endfacet
 facet normal 0 1 0
  outer loop
   vertex 0.1624 0.53125 -0.0672687
   vertex 0.146157 0.53125 -0.097659
   vertex 0.124296 0.53125 -0.124296
  endloop
 endfacet
 facet normal 0 1 0
  outer loop
   vertex 0.124296 0.53125 -0.124296
   vertex 0.097659 0.53125 -0.146157
   vertex 0.0672687 0.53125 -0.1624
  endloop
 endfacet
 facet normal 0 1 0
  outer loop
   vertex 0.0672687 0.53125 -0.1624
   vertex 0.034293 0.53125 -0.172404
   vertex -2.32831e-10 0.53125 -0.175781
  endloop
 endfacet
 facet normal 0 1 0
  outer loop
   vertex -2.32831e-10 0.53125 -0.175781
   vertex -0.0672687 0.53125 -0.1624
   vertex -0.124296 0.53125 -0.124296
  endloop
 endfacet
 facet normal 0 1 0
  outer loop
   vertex -0.124296 0.53125 -0.124296
   vertex -0.1624 0.53125 -0.0672687
   vertex -0.175781 0.53125 -1.68802e-09
  endloop
 endfacet
 facet normal 0 1 0
  outer loop
   vertex -0.175781 0.53125 -1.68802e-09
   vertex -0.1624 0.53125 0.0672687
   vertex -0.124296 0.53125 0.124296
  endloop
 endfacet
 facet normal 0 1 0
  outer loop
   vertex -0.124296 0.53125 0.124296
   vertex -0.0672687 0.53125 0.1624
   vertex -2.32831e-10 0.53125 0.175781
  endloop
 endfacet
 facet normal 0 1 0
  outer loop
   vertex -2.32831e-10 0.53125 0.175781
   vertex 0.0672687 0.53125 0.1624
   vertex 0.124296 0.53125 0.124296
  endloop
 endfacet
 facet normal 0 1 0
  outer loop
   vertex 0.124296 0.53125 0.124296
   vertex 0.1624 0.53125 0.0672687
   vertex 0.175781 0.53125 -1.68802e-09
  endloop
 endfacet
 facet normal 0 1 0
  outer loop
   vertex 0.175781 0.53125 -1.68802e-09
   vertex 0.1624 0.53125 -0.0672687
   vertex 0.124296 0.53125 -0.124296
  endloop
 endfacet
 facet normal 0 1 0
  outer loop
   vertex 0.124296 0.53125 -0.124296
   vertex 0.0672687 0.53125 -0.1624
   vertex -2.32831e-10 0.53125 -0.175781
  endloop
 endfacet
 facet normal 0 1 0
  outer loop
   vertex -2.32831e-10 0.53125 -0.175781
   vertex -0.124296 0.53125 -0.124296
   vertex -0.175781 0.53125 -1.68802e-09
  endloop
 endfacet
 facet normal 0 1 0
  outer loop
   vertex -0.175781 0.53125 -1.68802e-09
   vertex -0.124296 0.53125 0.124296
   vertex -2.32831e-10 0.53125 0.175781
  endloop
 endfacet
 facet normal 0 1 0
  outer loop
   vertex -2.32831e-10 0.53125 0.175781
   vertex 0.124296 0.53125 0.124296
   vertex 0.175781 0.53125 -1.68802e-09
  endloop
 endfacet
 facet normal 0 1 0
  outer loop
   vertex 0.175781 0.53125 -1.68802e-09
   vertex 0.124296 0.53125 -0.124296
   vertex -2.32831e-10 0.53125 -0.175781
  endloop
 endfacet
 facet normal 0 1 -0
  outer loop
   vertex -2.32831e-10 0.53125 -0.175781
   vertex -0.175781 0.53125 -1.68802e-09
   vertex -2.32831e-10 0.53125 0.175781
  endloop
 endfacet
 facet normal 0 1 0
  outer loop
   vertex -2.32831e-10 0.53125 0.175781
   vertex 0.175781 0.53125 -1.68802e-09
   vertex -2.32831e-10 0.53125 -0.175781
  endloop
 endfacet
 facet normal 0.619648 -0.21442 0.755023
  outer loop
   vertex 0.032553 6.2864e-10 0.048719
   vertex 0.041432 6.2864e-10 0.041432
   vertex 0.124296 0.53125 0.124296
  endloop
 endfacet
 facet normal 0.619648 -0.21442 0.755023
  outer loop
   vertex 0.032553 6.2864e-10 0.048719
   vertex 0.124296 0.53125 0.124296
   vertex 0.097659 0.53125 0.146157
  endloop
 endfacet
 facet normal -0.283536 -0.214419 -0.934683
  outer loop
   vertex -0.011431 6.2864e-10 -0.0574679
   vertex -0.0224229 6.2864e-10 -0.0541335
   vertex -0.0672687 0.53125 -0.1624
  endloop
 endfacet
 facet normal -0.283557 -0.21442 -0.934676
  outer loop
   vertex -0.011431 6.2864e-10 -0.0574679
   vertex -0.0672687 0.53125 -0.1624
   vertex -0.034293 0.53125 -0.172404
  endloop
 endfacet
endsolid zone0
